<?xml version="1.0" encoding="UTF-8"?>
<svg id="Layer_1" data-name="Layer 1" xmlns="http://www.w3.org/2000/svg" xmlns:xlink="http://www.w3.org/1999/xlink" viewBox="0 0 92.49 46.73">
  <defs>
    <style>
      .cls-1 {
        letter-spacing: -.1em;
      }

      .cls-2 {
        fill: url(#linear-gradient);
      }

      .cls-2, .cls-3, .cls-4, .cls-5, .cls-6 {
        stroke-width: 0px;
      }

      .cls-7 {
        fill: #2b5fe0;
        font-family: GillSansMT-Bold, 'Gill Sans MT';
        font-size: 5.85px;
        font-weight: 700;
      }

      .cls-8 {
        letter-spacing: -.07em;
      }

      .cls-3 {
        fill: url(#linear-gradient-5);
      }

      .cls-4 {
        fill: url(#linear-gradient-2);
      }

      .cls-5 {
        fill: url(#linear-gradient-3);
      }

      .cls-9 {
        letter-spacing: -.12em;
      }

      .cls-6 {
        fill: url(#linear-gradient-4);
      }
    </style>
    <linearGradient id="linear-gradient" x1="38.91" y1="17.9" x2="50.39" y2="37.79" gradientUnits="userSpaceOnUse">
      <stop offset=".24" stop-color="#771831"/>
      <stop offset="1" stop-color="#b40c31"/>
    </linearGradient>
    <linearGradient id="linear-gradient-2" x1="38.78" y1="20.98" x2="57.08" y2="20.98" xlink:href="#linear-gradient"/>
    <linearGradient id="linear-gradient-3" x1="9.46" y1="2.14" x2="27.9" y2="34.09" gradientUnits="userSpaceOnUse">
      <stop offset=".11" stop-color="#771831"/>
      <stop offset=".13" stop-color="#791731"/>
      <stop offset=".43" stop-color="#991131"/>
      <stop offset=".69" stop-color="#ac0d31"/>
      <stop offset=".86" stop-color="#b40c31"/>
    </linearGradient>
    <linearGradient id="linear-gradient-4" x1="38.78" y1="3.43" x2="57.08" y2="3.43" gradientUnits="userSpaceOnUse">
      <stop offset=".21" stop-color="#771831"/>
      <stop offset="1" stop-color="#b40c31"/>
    </linearGradient>
    <linearGradient id="linear-gradient-5" x1="61.91" y1="7.62" x2="81.97" y2="42.38" xlink:href="#linear-gradient"/>
  </defs>
  <path class="cls-2" d="M45.12,17.99h-6.33s0,18.23,0,18.23h12.84c3.01,0,5.45-2.41,5.45-5.39h0s-11.96,0-11.96,0v-7.58"/>
  <path class="cls-4" d="M57.08,17.98h0s-18.29,0-18.29,0v6.01h8.81c5.24,0,9.48-2.69,9.48-6.01Z"/>
  <path class="cls-5" d="M33.57,6.53s-11.02-.07-14.93-.07c-3.41,0-6.27,1.13-8.58,3.39-2.3,2.26-3.46,5.01-3.46,8.25s1.2,6.18,3.59,8.51c2.39,2.33,5.34,3.49,8.85,3.49,2.28,0,4.2-.48,5.77-1.44,1.57-.96,2.83-2.46,3.79-4.5h-3.84c-3.42,0-6.2-2.78-6.2-6.2h0s17.44,0,17.44,0l.05,1.46c0,3.03-.79,5.91-2.36,8.63-1.57,2.72-3.61,4.79-6.11,6.22-2.5,1.43-5.43,2.15-8.79,2.15-3.6,0-6.81-.78-9.63-2.35-2.82-1.56-5.05-3.79-6.69-6.68C.82,24.5,0,21.38,0,18.03,0,13.44,1.52,9.45,4.55,6.06,8.15,2.02,12.83,0,18.6,0c3.02,0,5.84.56,8.46,1.67,2.22.94,4.38,2.56,6.51,4.86Z"/>
  <path class="cls-6" d="M57.08,6.54V.32h-11.6c-3.7,0-6.69,2.79-6.69,6.23h0s6.33,0,6.33,0h0s11.96,0,11.96,0"/>
  <path class="cls-3" d="M75.5.6h0c-2.19,0-4.16,1.35-4.95,3.4l-12.46,32.31h0c4.26,0,8.09-2.61,9.66-6.57l.31-.79,2.5-6.63,4.79-12.26,4.76,12.26,2.52,6.63.29.75c1.51,3.98,5.32,6.6,9.57,6.6h0L79.92,3.63c-.7-1.83-2.46-3.03-4.42-3.03Z"/>
  <text class="cls-7" transform="translate(0 44.87)"><tspan x="0" y="0">GLOBAL EDUC</tspan><tspan class="cls-9" x="45.12" y="0">A</tspan><tspan x="48.99" y="0">TION</tspan><tspan class="cls-1" x="65.21" y="0"> </tspan><tspan x="66.25" y="0">A</tspan><tspan class="cls-8" x="70.83" y="0">D</tspan><tspan x="75.11" y="0">VISER</tspan></text>
</svg>